<svg xmlns="http://www.w3.org/2000/svg" version="1.1" xmlns:xlink="http://www.w3.org/1999/xlink" xmlns:svgjs="http://svgjs.dev/svgjs" width="1000" height="623" viewBox="0 0 1000 623"><g transform="matrix(1,0,0,1,-0.6060606060606233,0.2522267206477409)"><svg viewBox="0 0 396 247" data-background-color="#001f3f" preserveAspectRatio="xMidYMid meet" height="623" width="1000" xmlns="http://www.w3.org/2000/svg" xmlns:xlink="http://www.w3.org/1999/xlink"><g id="tight-bounds" transform="matrix(1,0,0,1,0.2400000000000091,-0.09999999999999432)"><svg viewBox="0 0 395.52 247.2" height="247.2" width="395.52"><g><svg></svg></g><g><svg viewBox="0 0 395.52 247.2" height="247.2" width="395.52"><g transform="matrix(1,0,0,1,112.13003619271444,47.215199999999996)"><svg viewBox="0 0 171.2599276145711 152.7696" height="152.7696" width="171.2599276145711"><g><svg viewBox="0 0 171.2599276145711 152.7696" height="152.7696" width="171.2599276145711"><g><svg viewBox="0 0 171.2599276145711 152.7696" height="152.7696" width="171.2599276145711"><g><svg viewBox="0 0 171.2599276145711 152.7696" height="152.7696" width="171.2599276145711"><g><svg viewBox="0 0 171.2599276145711 152.7696" height="152.7696" width="171.2599276145711" id="textblock"><g><svg viewBox="0 0 171.2599276145711 152.7696" height="152.7696" width="171.2599276145711"><g transform="matrix(1,0,0,1,0,0)"><svg width="171.2599276145711" viewBox="2.75 -42.29999923706055 47.70000076293945 42.54999923706055" height="152.7696" data-palette-color="#e71537"><path d="M49.05-11.15Q49.7-11.15 50.08-10.55 50.45-9.95 50.45-8.9L50.45-8.9Q50.45-6.95 49.5-5.8L49.5-5.8Q47.1-2.9 44.65-1.33 42.2 0.25 38.85 0.25L38.85 0.25Q35.6 0.25 33.33-1.5 31.05-3.25 29-7.5L29-7.5Q27.35-10.9 26.4-12.53 25.45-14.15 24.53-14.85 23.6-15.55 22.25-15.7L22.25-15.7Q22.05-14.65 21.1-9.1L21.1-9.1Q20.7-6.6 20.6-6.05L20.6-6.05Q20.1-3 18.6-1.38 17.1 0.25 14.05 0.25L14.05 0.25Q10.7 0.25 8.13-1.73 5.55-3.7 4.15-7.23 2.75-10.75 2.75-15.25L2.75-15.25Q2.75-23.65 5.68-29.75 8.6-35.85 13.88-39.08 19.15-42.3 26.05-42.3L26.05-42.3Q30.85-42.3 34.1-40.85 37.35-39.4 38.93-36.85 40.5-34.3 40.5-31.1L40.5-31.1Q40.5-28.3 39.18-25.63 37.85-22.95 35.2-20.9 32.55-18.85 28.75-17.85L28.75-17.85Q31.15-17.2 32.45-15.75 33.75-14.3 35.05-11.5L35.05-11.5Q36.45-8.5 37.83-7.1 39.2-5.7 41-5.7L41-5.7Q42.6-5.7 44.05-6.78 45.5-7.85 47.7-10.45L47.7-10.45Q48.3-11.15 49.05-11.15L49.05-11.15ZM14-8.25L15.35-15.75Q13.65-15.75 13.03-16.55 12.4-17.35 12.4-18.35L12.4-18.35Q12.4-19.55 13.18-20.25 13.95-20.95 14.95-20.95L14.95-20.95 16.2-20.95Q17-25.85 17.7-29.4L17.7-29.4Q18.35-32.65 21.9-32.65L21.9-32.65Q24.75-32.65 24.75-30.1L24.75-30.1Q24.75-29.55 24.7-29.25L24.7-29.25 23.2-20.95Q25.9-21.1 28.13-22.25 30.35-23.4 31.68-25.45 33-27.5 33-30.1L33-30.1Q33-33.25 30.85-35.05 28.7-36.85 24.55-36.85L24.55-36.85Q19.65-36.85 15.98-34.43 12.3-32 10.25-27.23 8.2-22.45 8.2-15.6L8.2-15.6Q8.2-12.4 8.85-10.1 9.5-7.8 10.45-6.65 11.4-5.5 12.25-5.5L12.25-5.5Q12.9-5.5 13.33-6.15 13.75-6.8 14-8.25L14-8.25Z" opacity="1" transform="matrix(1,0,0,1,0,0)" fill="#e71537" class="undefined-text-0" data-fill-palette-color="primary" id="text-0"></path></svg></g></svg></g></svg></g></svg></g></svg></g></svg></g></svg></g><g><path d="M209.23 0c30.402 0 58.24 10.976 79.768 29.183l-11.147 0c-19.26-14.022-42.974-22.294-68.621-22.295-25.647 0-49.361 8.272-68.621 22.295l-11.147 0c21.528-18.206 49.366-29.183 79.768-29.183zM332.83 123.6c0 26.749-8.497 51.514-22.94 71.742l0-12.636c10.201-17.335 16.051-37.537 16.052-59.106 0-21.569-5.851-41.771-16.052-59.106v-12.636c14.443 20.228 22.94 44.993 22.94 71.742zM209.23 247.2c-30.402 0-58.24-10.976-79.768-29.183l11.147 0c19.26 14.022 42.974 22.294 68.621 22.295 25.647 0 49.361-8.272 68.621-22.295h11.147c-21.528 18.206-49.366 29.183-79.768 29.183z" fill="#b400f1" stroke="transparent" data-fill-palette-color="tertiary"></path></g></svg></g><defs></defs></svg><rect width="395.52" height="247.2" fill="none" stroke="none" visibility="hidden"></rect></g></svg></g></svg>